<?xml version="1.0" encoding="UTF-8" standalone="no"?>
<svg
   xmlns:dc="http://purl.org/dc/elements/1.1/"
   xmlns:cc="http://creativecommons.org/ns#"
   xmlns:rdf="http://www.w3.org/1999/02/22-rdf-syntax-ns#"
   xmlns:svg="http://www.w3.org/2000/svg"
   xmlns="http://www.w3.org/2000/svg"
   xml:space="preserve"
   style="enable-background:new 0 0 1008 1008;"
   viewBox="0 0 1008 1008"
   height="1008px"
   width="1008px"
   y="0px"
   x="0px"
   id="_x30_2"
   version="1.1"><metadata
     id="metadata3440"><rdf:RDF><cc:Work
         rdf:about=""><dc:format>image/svg+xml</dc:format><dc:type
           rdf:resource="http://purl.org/dc/dcmitype/StillImage" /><dc:title></dc:title></cc:Work></rdf:RDF></metadata><defs
     id="defs3438" /><g
     transform="matrix(1.1159101,0,0,0.97325769,-58.419248,13.477151)"
     id="g3430"><rect
       id="rect3432"
       height="56.438"
       width="49.136002"
       style="fill:#00a0e9"
       y="311.987"
       x="479.42499" /><path
       id="path3434"
       d="m 685.319,79.333 -362.643,0 c -77.536,0 -140.386,72.186 -140.386,161.224 l 0,416.477 c 0,89.035 62.85,161.221 140.386,161.221 l 120.701,0 59.999,110.414 60.012,-110.414 121.932,0 c 77.53,0 140.391,-72.186 140.391,-161.221 l 0,-416.478 C 825.71,151.518 762.85,79.333 685.319,79.333 Z m -310.929,289.091 52.036,0 0,-56.438 -52.036,0 0,-60.858 52.036,0 0,-59.758 52.999,0 0,59.758 49.136,0 0,-59.758 52.997,0 0,59.758 52.027,0 0,60.858 -52.027,0 0,56.438 52.027,0 0,60.854 -52.027,0 0,59.76 -52.997,0 0,-59.76 -49.136,0 0,59.76 -52.999,0 0,-59.76 -52.036,0 0,-60.854 z M 747.103,554.68 c 0,0 -69.959,151.32 -236.067,151.32 -2.3,0 -4.57,-0.033 -6.83,-0.08 -2.256,0.047 -4.527,0.08 -6.825,0.08 -166.105,0 -236.064,-151.32 -236.064,-151.32 0,0 -4.528,-9.854 -4.528,-20.477 -0.285,-7.666 2.979,-18.656 11.547,-25.129 4.764,-3.596 9.268,-5.376 13.444,-5.932 20.001,-2.437 31.593,12.52 41.125,29.6 10.527,18.846 71.259,101.418 181.301,104.578 110.048,-3.16 170.782,-85.732 181.306,-104.578 9.533,-17.08 21.544,-32.062 41.128,-29.6 4.176,0.556 8.683,2.336 13.442,5.932 8.571,6.473 11.906,15.592 11.605,25.121 -0.671,14.022 -4.584,20.485 -4.584,20.485 z"
       style="fill:#00a0e9" /></g></svg>